<mxfile host="Electron" modified="2024-04-20T12:25:14.849Z" agent="Mozilla/5.0 (Windows NT 10.0; Win64; x64) AppleWebKit/537.36 (KHTML, like Gecko) draw.io/24.2.5 Chrome/120.0.6099.109 Electron/28.1.0 Safari/537.36" etag="hskX0e4HW-9jQXRSLRIP" version="24.2.5" type="device">
  <diagram id="XqnZwgFz175NEXh2xCFe" name="Page-1">
    <mxGraphModel dx="1434" dy="844" grid="1" gridSize="10" guides="1" tooltips="1" connect="1" arrows="1" fold="1" page="1" pageScale="1" pageWidth="827" pageHeight="1169" math="0" shadow="0">
      <root>
        <mxCell id="0" />
        <mxCell id="1" parent="0" />
        <mxCell id="nR5WkCoB2VeYr0q5t5iI-2" value="&lt;p style=&quot;margin: 0px ; margin-top: 4px ; text-align: center&quot;&gt;&lt;b&gt;CPU&lt;/b&gt;&lt;/p&gt;&lt;hr size=&quot;1&quot;&gt;&lt;div style=&quot;text-align: center ; height: 2px&quot;&gt;LPC4357&lt;/div&gt;" style="verticalAlign=top;align=left;overflow=fill;fontSize=12;fontFamily=Helvetica;html=1;rounded=1;" parent="1" vertex="1">
          <mxGeometry x="40" y="40" width="160" height="80" as="geometry" />
        </mxCell>
        <mxCell id="nR5WkCoB2VeYr0q5t5iI-3" value="&lt;p style=&quot;margin: 0px ; margin-top: 4px ; text-align: center&quot;&gt;&lt;b&gt;Переферия&lt;/b&gt;&lt;/p&gt;&lt;hr size=&quot;1&quot;&gt;&lt;div style=&quot;height: 2px&quot;&gt;&lt;div&gt;&lt;div style=&quot;text-align: center&quot;&gt;&lt;span&gt;SD карты&lt;/span&gt;&lt;/div&gt;&lt;span&gt;&lt;div style=&quot;text-align: center&quot;&gt;&lt;span&gt;модуль mpu9250&lt;/span&gt;&lt;/div&gt;&lt;/span&gt;&lt;/div&gt;&lt;/div&gt;" style="verticalAlign=top;align=left;overflow=fill;fontSize=12;fontFamily=Helvetica;html=1;rounded=1;" parent="1" vertex="1">
          <mxGeometry x="240" y="40" width="160" height="80" as="geometry" />
        </mxCell>
        <mxCell id="nR5WkCoB2VeYr0q5t5iI-6" value="" style="edgeStyle=orthogonalEdgeStyle;rounded=0;orthogonalLoop=1;jettySize=auto;html=1;" parent="1" source="nR5WkCoB2VeYr0q5t5iI-4" target="nR5WkCoB2VeYr0q5t5iI-2" edge="1">
          <mxGeometry relative="1" as="geometry" />
        </mxCell>
        <mxCell id="nR5WkCoB2VeYr0q5t5iI-4" value="&lt;p style=&quot;margin: 0px ; margin-top: 4px ; text-align: center&quot;&gt;&lt;b&gt;RTOS port&lt;/b&gt;&lt;/p&gt;&lt;hr size=&quot;1&quot;&gt;&lt;div style=&quot;text-align: center ; height: 2px&quot;&gt;&lt;br&gt;&lt;/div&gt;" style="verticalAlign=top;align=left;overflow=fill;fontSize=12;fontFamily=Helvetica;html=1;rounded=1;" parent="1" vertex="1">
          <mxGeometry x="40" y="160" width="160" height="80" as="geometry" />
        </mxCell>
        <mxCell id="nR5WkCoB2VeYr0q5t5iI-7" value="" style="edgeStyle=orthogonalEdgeStyle;rounded=0;orthogonalLoop=1;jettySize=auto;html=1;" parent="1" source="nR5WkCoB2VeYr0q5t5iI-5" target="nR5WkCoB2VeYr0q5t5iI-4" edge="1">
          <mxGeometry relative="1" as="geometry" />
        </mxCell>
        <mxCell id="nR5WkCoB2VeYr0q5t5iI-5" value="&lt;p style=&quot;margin: 0px ; margin-top: 4px ; text-align: center&quot;&gt;&lt;b&gt;RTOS&lt;/b&gt;&lt;/p&gt;&lt;hr size=&quot;1&quot;&gt;&lt;div style=&quot;text-align: center ; height: 2px&quot;&gt;&lt;br&gt;&lt;/div&gt;" style="verticalAlign=top;align=left;overflow=fill;fontSize=12;fontFamily=Helvetica;html=1;rounded=1;" parent="1" vertex="1">
          <mxGeometry x="40" y="280" width="160" height="80" as="geometry" />
        </mxCell>
        <mxCell id="nR5WkCoB2VeYr0q5t5iI-9" value="" style="edgeStyle=orthogonalEdgeStyle;rounded=0;orthogonalLoop=1;jettySize=auto;html=1;" parent="1" source="nR5WkCoB2VeYr0q5t5iI-8" target="nR5WkCoB2VeYr0q5t5iI-3" edge="1">
          <mxGeometry relative="1" as="geometry" />
        </mxCell>
        <mxCell id="nR5WkCoB2VeYr0q5t5iI-8" value="&lt;p style=&quot;margin: 0px ; margin-top: 4px ; text-align: center&quot;&gt;&lt;b&gt;CMSIS&lt;/b&gt;&lt;/p&gt;&lt;hr size=&quot;1&quot;&gt;&lt;div style=&quot;height: 2px&quot;&gt;&lt;div style=&quot;text-align: center&quot;&gt;SPI драйвер&lt;br&gt;UART драйвер&lt;br&gt;I2C драйвер&lt;/div&gt;&lt;/div&gt;" style="verticalAlign=top;align=left;overflow=fill;fontSize=12;fontFamily=Helvetica;html=1;rounded=1;" parent="1" vertex="1">
          <mxGeometry x="240" y="160" width="160" height="80" as="geometry" />
        </mxCell>
        <mxCell id="nR5WkCoB2VeYr0q5t5iI-11" value="" style="edgeStyle=orthogonalEdgeStyle;rounded=0;orthogonalLoop=1;jettySize=auto;html=1;" parent="1" source="nR5WkCoB2VeYr0q5t5iI-10" target="nR5WkCoB2VeYr0q5t5iI-8" edge="1">
          <mxGeometry relative="1" as="geometry" />
        </mxCell>
        <mxCell id="nR5WkCoB2VeYr0q5t5iI-12" value="" style="edgeStyle=orthogonalEdgeStyle;rounded=0;orthogonalLoop=1;jettySize=auto;html=1;exitX=0.002;exitY=0.335;exitDx=0;exitDy=0;exitPerimeter=0;" parent="1" source="nR5WkCoB2VeYr0q5t5iI-10" target="nR5WkCoB2VeYr0q5t5iI-5" edge="1">
          <mxGeometry relative="1" as="geometry" />
        </mxCell>
        <mxCell id="nR5WkCoB2VeYr0q5t5iI-10" value="&lt;p style=&quot;margin: 0px ; margin-top: 4px ; text-align: center&quot;&gt;&lt;b&gt;Драйвера&lt;/b&gt;&lt;/p&gt;&lt;hr size=&quot;1&quot;&gt;&lt;div style=&quot;height: 2px&quot;&gt;&lt;div style=&quot;text-align: center&quot;&gt;SPI обёртка&lt;br&gt;UART обёртка&lt;br&gt;I2C обёртка&lt;/div&gt;&lt;div style=&quot;text-align: center&quot;&gt;Драйвер SD карты&lt;/div&gt;&lt;div style=&quot;text-align: center&quot;&gt;Драйвер mpu9250&lt;/div&gt;&lt;/div&gt;" style="verticalAlign=top;align=left;overflow=fill;fontSize=12;fontFamily=Helvetica;html=1;rounded=1;" parent="1" vertex="1">
          <mxGeometry x="240" y="280" width="160" height="120" as="geometry" />
        </mxCell>
        <mxCell id="nR5WkCoB2VeYr0q5t5iI-14" value="" style="edgeStyle=orthogonalEdgeStyle;rounded=0;orthogonalLoop=1;jettySize=auto;html=1;" parent="1" source="nR5WkCoB2VeYr0q5t5iI-13" edge="1">
          <mxGeometry relative="1" as="geometry">
            <mxPoint x="401" y="320" as="targetPoint" />
          </mxGeometry>
        </mxCell>
        <mxCell id="nR5WkCoB2VeYr0q5t5iI-13" value="&lt;p style=&quot;margin: 0px ; margin-top: 4px ; text-align: center&quot;&gt;&lt;b&gt;Модули системы&lt;/b&gt;&lt;/p&gt;&lt;hr size=&quot;1&quot;&gt;&lt;div style=&quot;text-align: center ; height: 2px&quot;&gt;Инициализация&lt;br&gt;Общение по UART&lt;br&gt;Обработка ошибок&lt;/div&gt;" style="verticalAlign=top;align=left;overflow=fill;fontSize=12;fontFamily=Helvetica;html=1;rounded=1;" parent="1" vertex="1">
          <mxGeometry x="440" y="280" width="160" height="80" as="geometry" />
        </mxCell>
        <mxCell id="nR5WkCoB2VeYr0q5t5iI-16" style="edgeStyle=orthogonalEdgeStyle;rounded=0;orthogonalLoop=1;jettySize=auto;html=1;exitX=0.222;exitY=0;exitDx=0;exitDy=0;entryX=0.5;entryY=1;entryDx=0;entryDy=0;exitPerimeter=0;" parent="1" source="nR5WkCoB2VeYr0q5t5iI-15" target="nR5WkCoB2VeYr0q5t5iI-10" edge="1">
          <mxGeometry relative="1" as="geometry" />
        </mxCell>
        <mxCell id="nR5WkCoB2VeYr0q5t5iI-17" style="edgeStyle=orthogonalEdgeStyle;rounded=0;orthogonalLoop=1;jettySize=auto;html=1;exitX=0.778;exitY=-0.004;exitDx=0;exitDy=0;entryX=0.5;entryY=1;entryDx=0;entryDy=0;exitPerimeter=0;" parent="1" source="nR5WkCoB2VeYr0q5t5iI-15" target="nR5WkCoB2VeYr0q5t5iI-13" edge="1">
          <mxGeometry relative="1" as="geometry" />
        </mxCell>
        <mxCell id="nR5WkCoB2VeYr0q5t5iI-15" value="&lt;p style=&quot;margin: 0px ; margin-top: 4px ; text-align: center&quot;&gt;&lt;b&gt;Абстракция системы&lt;/b&gt;&lt;/p&gt;&lt;hr size=&quot;1&quot;&gt;&lt;div style=&quot;text-align: center ; height: 2px&quot;&gt;C++ интерфейс для приложения&lt;br&gt;Конфиг хранилища данных&lt;/div&gt;" style="verticalAlign=top;align=left;overflow=fill;fontSize=12;fontFamily=Helvetica;html=1;rounded=1;" parent="1" vertex="1">
          <mxGeometry x="240" y="440" width="360" height="80" as="geometry" />
        </mxCell>
        <mxCell id="nR5WkCoB2VeYr0q5t5iI-19" style="edgeStyle=orthogonalEdgeStyle;rounded=0;orthogonalLoop=1;jettySize=auto;html=1;entryX=0.5;entryY=1;entryDx=0;entryDy=0;" parent="1" source="nR5WkCoB2VeYr0q5t5iI-18" target="nR5WkCoB2VeYr0q5t5iI-5" edge="1">
          <mxGeometry relative="1" as="geometry" />
        </mxCell>
        <mxCell id="nR5WkCoB2VeYr0q5t5iI-18" value="&lt;p style=&quot;margin: 0px ; margin-top: 4px ; text-align: center&quot;&gt;&lt;b&gt;RTOS RAII&lt;/b&gt;&lt;/p&gt;&lt;hr size=&quot;1&quot;&gt;&lt;div style=&quot;text-align: center ; height: 2px&quot;&gt;&lt;br&gt;&lt;/div&gt;" style="verticalAlign=top;align=left;overflow=fill;fontSize=12;fontFamily=Helvetica;html=1;rounded=1;" parent="1" vertex="1">
          <mxGeometry x="40" y="440" width="160" height="80" as="geometry" />
        </mxCell>
        <mxCell id="nR5WkCoB2VeYr0q5t5iI-21" style="edgeStyle=orthogonalEdgeStyle;rounded=0;orthogonalLoop=1;jettySize=auto;html=1;exitX=0.143;exitY=0.004;exitDx=0;exitDy=0;entryX=0.5;entryY=1;entryDx=0;entryDy=0;exitPerimeter=0;" parent="1" source="nR5WkCoB2VeYr0q5t5iI-20" target="nR5WkCoB2VeYr0q5t5iI-18" edge="1">
          <mxGeometry relative="1" as="geometry" />
        </mxCell>
        <mxCell id="nR5WkCoB2VeYr0q5t5iI-22" style="edgeStyle=orthogonalEdgeStyle;rounded=0;orthogonalLoop=1;jettySize=auto;html=1;entryX=0.5;entryY=1;entryDx=0;entryDy=0;exitX=0.679;exitY=-0.004;exitDx=0;exitDy=0;exitPerimeter=0;" parent="1" source="nR5WkCoB2VeYr0q5t5iI-20" target="nR5WkCoB2VeYr0q5t5iI-15" edge="1">
          <mxGeometry relative="1" as="geometry" />
        </mxCell>
        <mxCell id="nR5WkCoB2VeYr0q5t5iI-20" value="&lt;p style=&quot;margin: 0px ; margin-top: 4px ; text-align: center&quot;&gt;&lt;b&gt;Приложение&lt;/b&gt;&lt;/p&gt;&lt;hr size=&quot;1&quot;&gt;&lt;div style=&quot;text-align: center ; height: 2px&quot;&gt;Система логирования и доступа данных&lt;br&gt;Тесты Google C++ Testing Framework&lt;/div&gt;" style="verticalAlign=top;align=left;overflow=fill;fontSize=12;fontFamily=Helvetica;html=1;rounded=1;" parent="1" vertex="1">
          <mxGeometry x="40" y="560" width="560" height="80" as="geometry" />
        </mxCell>
        <mxCell id="nR5WkCoB2VeYr0q5t5iI-24" style="edgeStyle=orthogonalEdgeStyle;rounded=0;orthogonalLoop=1;jettySize=auto;html=1;entryX=1;entryY=0.5;entryDx=0;entryDy=0;exitX=1;exitY=0.5;exitDx=0;exitDy=0;" parent="1" source="nR5WkCoB2VeYr0q5t5iI-23" target="nR5WkCoB2VeYr0q5t5iI-13" edge="1">
          <mxGeometry relative="1" as="geometry" />
        </mxCell>
        <mxCell id="nR5WkCoB2VeYr0q5t5iI-23" value="&lt;p style=&quot;margin: 0px ; margin-top: 4px ; text-align: center&quot;&gt;&lt;b&gt;Инфраструктура на Python&lt;/b&gt;&lt;/p&gt;&lt;hr size=&quot;1&quot;&gt;&lt;div style=&quot;text-align: center ; height: 2px&quot;&gt;Вычитка данных с SD карты&lt;br&gt;Тесты Pytest&lt;/div&gt;" style="verticalAlign=top;align=left;overflow=fill;fontSize=12;fontFamily=Helvetica;html=1;rounded=1;" parent="1" vertex="1">
          <mxGeometry x="40" y="680" width="560" height="80" as="geometry" />
        </mxCell>
        <mxCell id="nR5WkCoB2VeYr0q5t5iI-25" value="" style="endArrow=none;dashed=1;html=1;" parent="1" edge="1">
          <mxGeometry width="50" height="50" relative="1" as="geometry">
            <mxPoint x="40" y="140" as="sourcePoint" />
            <mxPoint x="400" y="140" as="targetPoint" />
          </mxGeometry>
        </mxCell>
        <mxCell id="nR5WkCoB2VeYr0q5t5iI-26" value="" style="endArrow=none;dashed=1;html=1;" parent="1" edge="1">
          <mxGeometry width="50" height="50" relative="1" as="geometry">
            <mxPoint x="40" y="260" as="sourcePoint" />
            <mxPoint x="600" y="260" as="targetPoint" />
          </mxGeometry>
        </mxCell>
        <mxCell id="nR5WkCoB2VeYr0q5t5iI-27" value="" style="endArrow=none;dashed=1;html=1;" parent="1" edge="1">
          <mxGeometry width="50" height="50" relative="1" as="geometry">
            <mxPoint x="40" y="419.9999999999999" as="sourcePoint" />
            <mxPoint x="600" y="419.9999999999999" as="targetPoint" />
          </mxGeometry>
        </mxCell>
      </root>
    </mxGraphModel>
  </diagram>
</mxfile>
